<svg width="36" height="36" viewBox="0 0 40 40" xmlns="http://www.w3.org/2000/svg"><path d="M40 20.03a20 20 0 1 0-40-.06 20 20 0 0 0 40 .06"/><path fill="#fff" d="M13.76 20.527a5.13 5.13 0 0 1 .865-3.007 5.34 5.34 0 0 1 2.368-1.879 12.8 12.8 0 0 1 3.382-.845l2.236-.198v-.432a4.5 4.5 0 0 0-.394-2.208 1.88 1.88 0 0 0-1.673-.77h-.206a2.8 2.8 0 0 0-1.447.526c-.41.31-.692.763-.79 1.268a.65.65 0 0 1-.507.583l-2.894-.348q-.432-.104-.432-.45a.8.8 0 0 1 0-.18 4.88 4.88 0 0 1 2.124-3.353 8 8 0 0 1 3.946-1.222h.639a6.43 6.43 0 0 1 4.528 1.494q.255.255.47.545.185.248.338.517.157.318.226.667.103.432.15.601.073.353.075.714v6.803c-.006.411.058.821.188 1.212.085.278.208.544.367.789l.582.78c.088.117.14.257.15.404a.43.43 0 0 1-.197.385l-2.292 1.982a.71.71 0 0 1-.743.047 7 7 0 0 1-.63-.582l-.375-.404a6 6 0 0 1-.366-.489 8 8 0 0 0-.357-.488 6.24 6.24 0 0 1-2.82 1.879 7.7 7.7 0 0 1-2.141.253 4.46 4.46 0 0 1-3.232-1.259 4.52 4.52 0 0 1-1.137-3.335m4.38-.507c-.032.57.141 1.133.488 1.588a1.64 1.64 0 0 0 1.334.6h.376a2.58 2.58 0 0 0 1.653-1.37c.188-.33.327-.685.414-1.053a5 5 0 0 0 .15-.94v-1.823a9.3 9.3 0 0 0-2.236.198 2.725 2.725 0 0 0-2.236 2.818z"/><path fill="#fb9738" d="M6.066 27.771q.122-.197.404 0a27.1 27.1 0 0 0 13.868 3.683 27.4 27.4 0 0 0 9.837-1.879l.366-.15.338-.15a.45.45 0 0 1 .602.15q.216.3-.141.554t-1.175.77a19 19 0 0 1-4.885 2.011 20.6 20.6 0 0 1-5.262.714 20.4 20.4 0 0 1-7.516-1.381 20.7 20.7 0 0 1-6.352-3.927.35.35 0 0 1-.15-.254.27.27 0 0 1 .066-.14"/><path fill="#fb9738" d="M28.794 28.203q.06-.11.15-.197c.37-.262.784-.46 1.221-.582a8.3 8.3 0 0 1 1.88-.282q.239-.039.479 0 1.146.103 1.371.376a.84.84 0 0 1 .104.45v.179a5.8 5.8 0 0 1-.48 2.105 4.9 4.9 0 0 1-1.343 1.945.4.4 0 0 1-.226.103h-.103q-.15-.075-.075-.282c.483-.968.8-2.01.94-3.082a.66.66 0 0 0-.104-.404q-.254-.3-1.419-.3-.432 0-1.014.047l-1.175.15a.3.3 0 0 1-.206-.056.085.085 0 0 1 0-.104.2.2 0 0 1 0-.066"/></svg>