<svg width="36" height="36" viewBox="0 0 80 80"><path fill="url(#a)" d="M80 40.06a40 40 0 0 0-9.046-25.396 40 40 0 0 0-49.779-9.958 40 40 0 0 0-18.12 19.961A40 40 0 0 0 17.77 73.251a40 40 0 0 0 50.52-4.974A40 40 0 0 0 80 40.06"/><path fill="#fff" fill-rule="evenodd" d="M55.485 23.032c-.058.015-.106.051-.106.08s-.05.067-.11.086c-.466.148-.899 1.23-.627 1.567.03.038.074.157.098.265s.063.196.09.196.153.084.282.186c.448.355 1.966.15 1.966-.264 0-.026.058-.125.128-.22.19-.256.154-1.223-.052-1.366-.075-.052-.137-.127-.139-.167-.007-.236-1.06-.485-1.53-.363M16.57 27.584l-.637.12c-.39.071-1.351.365-1.56.476a35 35 0 0 1-.503.252 5 5 0 0 0-.546.305c-.524.38-.64.342-.708-.226-.056-.477-.118-.506-1.097-.506h-.807l-.12.197c-.118.192-.12.32-.12 5.88l-.001 5.682.17.163c.258.246 1.827.253 2.091.009l.166-.154v-9.23l.17-.122c.095-.066.286-.166.426-.222s.254-.123.254-.15.089-.068.197-.092.293-.09.41-.148.349-.124.516-.148.42-.08.563-.128c.969-.322 2.56.224 2.562.879 0 .05.048.173.107.273.097.167.108.542.136 4.634.024 3.538.046 4.47.109 4.531.154.154 1.952.139 2.136-.017l.152-.129.016-4.57.017-4.569.151-.14c.084-.077.24-.17.348-.207s.261-.116.34-.177.19-.111.245-.111a1 1 0 0 0 .315-.116c.12-.064.351-.135.515-.158.164-.024.394-.083.51-.132.135-.056.449-.092.85-.098 1.122-.017 1.616.326 1.948 1.35l.146.453.03 4.3c.017 2.364.054 4.322.081 4.35.132.132 1.951.094 2.076-.043.12-.132.162-8.463.049-9.66-.165-1.736-2.356-3.048-4.254-2.547-.125.033-.414.09-.642.125s-.474.101-.546.146-.22.098-.33.118c-.247.045-1.288.548-1.653.798-.53.363-.533.364-.765.14-.113-.109-.206-.222-.206-.253 0-.081-.619-.64-.758-.683a.7.7 0 0 1-.215-.12c-.084-.073-.468-.186-1.12-.329-.289-.063-.875-.061-1.214.004m31.206.085c-.16.046-.46.103-.668.126s-.472.092-.59.152a26 26 0 0 1-.576.28c-.374.175-1.114.816-1.272 1.102-.407.734-.588 1.56-.464 2.12.219.994.572 1.59 1.236 2.087.175.131.354.273.399.314a.3.3 0 0 0 .158.076c.043 0 .148.055.234.122a1 1 0 0 0 .357.159.8.8 0 0 1 .293.115c.05.042.211.108.359.147s.324.107.394.151.223.1.34.124.307.095.423.157c.117.062.261.113.322.113s.211.052.335.116c.123.063.292.147.376.185.939.43 1.261 1.023 1.026 1.89-.13.478-.644 1.071-.93 1.071a.6.6 0 0 0-.28.106c-.132.093-.311.106-1.485.106-1.1 0-1.396-.019-1.678-.106a2.4 2.4 0 0 0-.5-.106c-.086 0-.337-.067-.559-.15-.443-.167-.786-.19-.95-.067-.274.206-.04 1.547.27 1.547a.34.34 0 0 1 .166.08c.593.499 3.897.886 4.786.562.143-.052.403-.114.576-.137s.397-.091.498-.152a.8.8 0 0 1 .274-.113c.095 0 .568-.292.733-.45.053-.05.117-.092.143-.092.088 0 .52-.484.718-.803.8-1.29.662-2.904-.333-3.933-.297-.307-.39-.374-.821-.583-.142-.068-.258-.15-.258-.182s-.05-.058-.113-.058c-.062 0-.24-.068-.397-.15-.157-.084-.332-.153-.389-.154-.056 0-.24-.069-.406-.15s-.338-.15-.38-.15-.178-.054-.302-.12c-.125-.067-.268-.122-.319-.122s-.173-.055-.274-.12-.23-.12-.29-.121c-.3-.001-1.331-.718-1.412-.982a.8.8 0 0 0-.14-.248c-.404-.457.076-1.488.878-1.886l.358-.177h1.274c1.064.002 1.305.018 1.458.1.1.055.333.128.516.161s.414.105.514.157c.486.253.584.133.564-.688-.016-.612-.03-.691-.14-.75a.7.7 0 0 1-.152-.11c-.052-.068-.36-.17-.517-.17-.08 0-.249-.05-.375-.114-.148-.073-.426-.128-.781-.152a5 5 0 0 1-.759-.098c-.366-.105-1.155-.122-1.468-.032m16.585.148c-.313.025-.576.08-.668.14a1.3 1.3 0 0 1-.382.142c-.127.023-.264.075-.304.115s-.153.093-.25.117a1 1 0 0 0-.326.161c-.083.065-.184.118-.225.118-.097 0-1.304 1.159-1.304 1.252 0 .039-.035.092-.078.119-.072.044-.233.352-.583 1.112-.07.154-.128.336-.128.406s-.059.27-.13.446c-.25.614-.225 3.875.034 4.368.052.1.095.244.095.32 0 .13.232.704.37.919.032.05.102.185.155.302.138.302.859 1.148.977 1.148.032 0 .137.068.234.15.097.084.206.152.243.152.036 0 .114.053.173.117.059.065.184.134.278.155s.203.075.24.12c.038.045.183.1.323.124s.39.096.558.162c.334.132 3.03.17 3.49.05 1.204-.316 1.395-.492 1.395-1.283 0-.726-.247-.877-.97-.593-.17.066-.451.121-.625.122s-.48.024-.68.052c-.49.069-1.89-.054-2.094-.185a1.2 1.2 0 0 0-.317-.134c-.437-.1-1.3-.957-1.408-1.396a.8.8 0 0 0-.139-.285c-.054-.06-.113-.29-.14-.544a3.2 3.2 0 0 0-.113-.61c-.099-.246-.084-1.62.023-2.176.05-.26.091-.578.091-.706 0-.222.268-.986.406-1.157a.7.7 0 0 0 .102-.204c.088-.284.893-.983 1.252-1.086a.8.8 0 0 0 .243-.121c.275-.236 3.319-.234 3.68.002.41.267.69.023.69-.603q-.001-1.06-.797-1.06a1.7 1.7 0 0 1-.466-.115c-.338-.133-1.998-.209-2.925-.133m-32.66.168c-.238.04-.229-.162-.235 4.964-.005 4.467.009 5.023.126 5.177.026.033.077.174.115.314s.105.29.15.335a.6.6 0 0 1 .121.208c.034.106.387.46.716.719.978.768 3.937.766 5.04-.003.073-.051.177-.093.23-.093s.188-.068.301-.151.245-.151.293-.151.133-.048.187-.106a2.2 2.2 0 0 1 .418-.273l.319-.166.06.155c.032.086.059.248.059.36 0 .325.114.506.365.581.308.092 1.528.047 1.659-.06.116-.096.155-11.488.04-11.669-.085-.134-2.04-.168-2.216-.038-.12.087-.122.177-.152 4.691l-.03 4.603-.577.288c-.837.418-1.111.533-1.374.578-.128.021-.345.08-.48.129-.607.219-1.906.028-2.388-.351-.677-.532-.692-.653-.731-5.683-.027-3.338-.05-4.227-.112-4.29-.079-.078-1.535-.13-1.904-.068m23.345.101c-.179.133-.236 11.509-.059 11.704.123.135 1.74.18 1.974.055.17-.09.186-11.587.017-11.726-.153-.127-1.768-.154-1.932-.033m9.77 16.417a16 16 0 0 0-1.032.141c-.3.054-.651.097-.78.097-.128 0-.32.04-.424.088a3 3 0 0 1-.551.15c-.198.036-.422.105-.499.155a.6.6 0 0 1-.271.09c-.215 0-1.792.77-2.045.998-.835.753-.428 1.06.96.723 1.3-.315 5.624-.294 6.233.031.125.067.253.122.284.122.057 0 .398.354.403.418.002.02.028.157.058.307.077.386-.042 1.7-.187 2.068a1.7 1.7 0 0 0-.116.489c0 .108-.055.304-.123.436-.068.131-.14.348-.161.48a1.7 1.7 0 0 1-.15.453 1 1 0 0 0-.114.332c-.001.067-.07.258-.151.424-.082.166-.15.357-.15.423s-.056.202-.122.302-.121.236-.121.302-.055.21-.122.319-.121.233-.121.275-.07.217-.156.388c-.11.222-.15.384-.136.57l.019.26.273.019c.189.012.319-.016.421-.091.223-.163 1.11-1.05 1.248-1.249a10 10 0 0 1 .244-.332c.068-.087.193-.267.279-.4.41-.637.5-.79.642-1.088.047-.1.112-.222.144-.272s.087-.158.123-.241.131-.278.212-.432c.08-.155.146-.325.146-.378 0-.054.055-.199.121-.323.067-.124.122-.28.122-.348s.05-.217.112-.333.132-.357.155-.537a2 2 0 0 1 .13-.496c.05-.094.117-.45.151-.792s.095-.716.134-.833c.285-.843-.06-2.08-.618-2.216a2 2 0 0 1-.367-.149 1.1 1.1 0 0 0-.425-.112c-.22 0-1.128-.158-1.215-.211-.086-.054-1.956-.074-2.457-.027M10.14 45.729c-.317.415-.14.713.99 1.657.189.157.356.3.373.316.155.157 1.674 1.33 1.722 1.33.014 0 .116.084.228.189s.272.233.356.285.385.26.67.46.562.391.614.424c.322.206.88.579.935.624.035.03.165.102.288.16s.224.13.224.16.037.053.083.053c.045 0 .16.06.253.134.188.147.43.29.756.444.117.055.226.122.243.147s.126.09.243.143.267.13.333.172c.468.288.584.35.659.35.047 0 .118.04.158.088s.172.12.294.16.257.108.301.152.189.11.32.145c.133.035.24.089.24.12 0 .03.107.084.236.119.13.034.268.102.308.15s.159.104.265.127.265.093.354.155.195.113.237.113c.073 0 .521.197.98.43.123.063.26.114.305.114s.185.053.313.117c.127.065.307.134.401.155s.274.09.402.154c.127.065.28.118.342.118.06 0 .212.05.336.113.123.063.32.134.436.16.117.024.267.08.334.122s.245.096.395.12.368.095.485.157.295.113.397.113.288.052.414.116.343.134.483.155.391.09.558.15.432.128.589.147.45.089.65.156c.201.067.461.122.578.122s.316.04.442.087c.126.048.467.116.758.153s.632.102.759.146.461.097.745.118.72.082.971.135c.25.053.824.119 1.274.148s1.243.097 1.76.151c1.065.112 5.588.093 6.16-.026.167-.035.705-.091 1.196-.125.49-.034 1.078-.101 1.305-.148s.617-.104.867-.127c.25-.022.606-.077.79-.121s.565-.112.849-.15a5 5 0 0 0 .728-.147 3 3 0 0 1 .56-.12c.192-.024.498-.095.681-.16s.423-.117.533-.119c.109-.001.308-.044.441-.094s.425-.13.648-.175a3 3 0 0 0 .576-.17c.095-.047.28-.105.412-.13s.318-.082.41-.13.286-.112.428-.143c.33-.071 1.002-.291 1.198-.392.083-.043.247-.099.364-.124s.328-.096.47-.158l.516-.225c.142-.062.353-.133.47-.158s.254-.08.304-.123.205-.109.346-.146.27-.092.289-.122.17-.1.336-.154c.167-.055.303-.122.303-.149s.12-.078.265-.114.297-.106.338-.155a.5.5 0 0 1 .247-.126c.095-.02.206-.077.245-.124s.178-.115.308-.15.236-.087.236-.116.102-.086.227-.126.27-.11.321-.154.188-.123.303-.175c.116-.052.32-.163.453-.246.134-.083.327-.19.43-.237a.9.9 0 0 0 .265-.179c.043-.052.11-.094.147-.094.038 0 .228-.11.424-.245s.414-.272.485-.304.24-.14.373-.24c.134-.1.342-.247.462-.326 1.105-.728 1.297-1.468.485-1.865-.303-.148-.945-.048-1.341.21a1.2 1.2 0 0 1-.38.138c-.125.022-.227.062-.227.09s-.13.084-.288.127-.357.113-.44.157c-.187.099-.806.315-1.093.381-.116.027-.335.107-.485.177s-.328.128-.395.13c-.066.002-.172.042-.235.09s-.268.117-.455.155c-.188.038-.37.093-.406.122s-.213.082-.394.12-.391.107-.466.154-.266.102-.425.123-.384.085-.501.142-.355.12-.528.139-.38.077-.46.129-.277.11-.442.13-.45.085-.633.145c-.184.06-.47.13-.638.154-.167.024-.371.077-.455.118s-.315.094-.516.118a5 5 0 0 0-.75.158 3 3 0 0 1-.637.118 3.6 3.6 0 0 0-.679.115 7 7 0 0 1-.85.155c-.232.023-.558.079-.725.124s-.654.112-1.082.149-.848.093-.932.125-.444.073-.8.092-1.123.088-1.707.154c-1.462.166-6.957.181-8.253.023a36 36 0 0 0-1.7-.155 12 12 0 0 1-1.304-.144c-.234-.048-.745-.117-1.136-.153s-.773-.088-.85-.117-.438-.086-.804-.127-.772-.113-.903-.159-.325-.083-.432-.083-.411-.057-.675-.126a9 9 0 0 0-.814-.175 16 16 0 0 1-1.7-.395 6 6 0 0 0-.63-.147c-.196-.034-.388-.088-.426-.12-.039-.031-.237-.084-.442-.117s-.45-.1-.545-.149a2 2 0 0 0-.475-.133c-.167-.025-.398-.095-.515-.157s-.28-.113-.364-.114-.269-.054-.411-.118a2.5 2.5 0 0 0-.486-.156 1.2 1.2 0 0 1-.349-.116 1.3 1.3 0 0 0-.333-.12 3 3 0 0 1-.455-.147 10 10 0 0 0-.515-.2c-.58-.201-.706-.25-.941-.354-.134-.06-.318-.127-.41-.15s-.268-.092-.392-.154a1.1 1.1 0 0 0-.311-.115c-.048 0-.172-.051-.276-.114s-.276-.133-.382-.155-.223-.077-.26-.12c-.037-.045-.168-.1-.29-.123a1.2 1.2 0 0 1-.378-.15 1.1 1.1 0 0 0-.346-.15.56.56 0 0 1-.266-.128c-.04-.048-.102-.087-.14-.087s-.204-.064-.371-.143a27 27 0 0 0-.457-.211 3 3 0 0 1-.242-.123c-.05-.03-.412-.214-.805-.408-1.157-.573-1.663-.835-1.752-.909a.8.8 0 0 0-.248-.11.53.53 0 0 1-.237-.13c-.04-.048-.158-.128-.26-.177s-.337-.17-.519-.268c-.44-.239-.622-.233-.819.023" clip-rule="evenodd"/><defs><linearGradient id="a" x1="40" x2="40" y1="79.997" y2="0" gradientUnits="userSpaceOnUse"><stop stop-color="#2a216d"/><stop offset="1" stop-color="#40f"/></linearGradient></defs></svg>