<svg width="36" height="36" viewBox="0 0 48 48" xmlns="http://www.w3.org/2000/svg"><circle cx="24" cy="24" r="24"/><path fill="#ff00fe" fill-rule="evenodd" d="M29.463 33.652v-9.75a5.366 5.366 0 1 0-2.048 4.316v-1.98a4.001 4.001 0 1 1 .683-2.336v9.495z" clip-rule="evenodd"/><path fill="#00cee5" fill-rule="evenodd" d="M24.097 16.293a7.61 7.61 0 0 1 7.61 7.61v10.17l-1.463-.274v-9.701h-.001v-.196h.003a6.148 6.148 0 1 0-2.831 5.178v1.673a7.61 7.61 0 1 1-3.317-14.46" clip-rule="evenodd"/><path fill="#04ff16" fill-rule="evenodd" d="M33.951 34.494V23.902c-.053-5.397-4.444-9.756-9.853-9.756-5.442 0-9.854 4.412-9.854 9.854s4.412 9.854 9.854 9.854c1.164 0 2.28-.202 3.317-.573v-1.679a8.293 8.293 0 1 1 4.97-7.895h.005v10.494z" clip-rule="evenodd"/><path fill="#e0ff00" fill-rule="evenodd" d="M36 34.878V23.902C35.947 17.32 30.595 12 24 12c-6.627 0-12 5.373-12 12s5.373 12 12 12c2.1 0 4.073-.54 5.79-1.487l-.214-.059-2.161-.405v-.008c-1.07.384-2.22.593-3.415.593-5.765 0-10.439-4.869-10.439-10.634S18.235 13.561 24 13.561c5.733 0 10.386 4.621 10.438 10.341h.001v10.683z" clip-rule="evenodd"/></svg>