<svg width="36" height="36" viewBox="0 0 80 80"><circle cx="40" cy="40" r="40" fill="url(#a)"/><path fill="#fff" fill-rule="evenodd" d="M56.556 12.223c-.19.022-1.911.322-2.123.366l-23.777 4.8h-.011c-.623.134-1.112.356-1.478.667-.456.378-.7.922-.8 1.544a5 5 0 0 0-.056.8v29.756c0 .7-.055 1.367-.522 1.944-.467.578-1.056.745-1.733.89-.523.1-1.034.21-1.556.31-1.967.4-3.244.667-4.4 1.112-1.111.433-1.933.977-2.6 1.666-1.311 1.367-1.844 3.234-1.655 4.978.155 1.489.822 2.911 1.977 3.956a5.94 5.94 0 0 0 2.89 1.477c1.188.234 2.444.156 4.288-.222.978-.2 1.9-.511 2.778-1.022a6.9 6.9 0 0 0 2.189-2.022 7.5 7.5 0 0 0 1.166-2.745c.212-1.01.267-1.933.267-2.944v-25.8c0-1.378.389-1.745 1.511-2.022 0 0 19.767-3.99 20.69-4.167 1.288-.245 1.888.122 1.888 1.467v17.622c0 .7-.011 1.4-.478 1.978-.467.577-1.055.744-1.733.888-.522.1-1.033.212-1.556.312-1.966.4-3.244.666-4.4 1.11-1.11.434-1.933.978-2.6 1.667a6.27 6.27 0 0 0-1.7 4.978 6.23 6.23 0 0 0 2.023 3.956 6 6 0 0 0 2.888 1.466c1.19.234 2.445.156 4.29-.222.977-.2 1.9-.489 2.777-1.011a6.9 6.9 0 0 0 2.189-2.022 7.5 7.5 0 0 0 1.167-2.745c.21-1.01.222-1.933.222-2.944V14.323c-.011-1.367-.734-2.211-2.022-2.1" clip-rule="evenodd"/><defs><linearGradient id="a" x1="40" x2="40" y1="79.696" y2="1.724" gradientUnits="userSpaceOnUse"><stop stop-color="#fa233b"/><stop offset="1" stop-color="#fb5c74"/></linearGradient></defs></svg>