<svg width="36" height="36" viewBox="0 0 101 101" xmlns="http://www.w3.org/2000/svg"><circle cx="50.5" cy="50.5" r="50.5"/><path fill="#ffa200" d="M15.993 48.17s1.627-.268 2.294.44c.67.707.232 2.169-.657 2.19-.89.029-1.712.195-2.295-.435a1.35 1.35 0 0 1 .658-2.19zm17.642 9.99c-.156.013-.322-.06-.491-.182-1.165-1.64-1.587-7.253-2.122-7.588-.554-.347-2.561 3.109-6.559 2.74-1.668-.157-3.368-1.253-4.37-2.01.094-1.274.11-4.254 2.599-3.287 1.508.592 4.1 2.207 6.373-.695 2.514-3.209 3.897-2.276 4.73-1.578.83.695.279 4.323 1.518 3.309 1.24-1.014 6.245-7.31 6.245-7.31s3.876-3.95 4.47.204c.595 4.154 3.118 8.756 3.788 8.624.673-.131 8.468-16.146 9.585-17.182 1.118-1.033 4.874-.896 4.696 1.753-.178 2.651-.563 19.13-.563 19.13s-.439 4.645.281 2.162c.298-1.03.617-1.956 1.018-3.04 1.922-6.229 5.2-16.866 6.833-22.347l.949-3.302q.123-.508.294-1.002c.135-.47.229-.773.257-.855.072-.206.278-.363.563-.476.291-.184.601-.194.952-.203.908-.081 2.072.038 3.12.338.345.017.676.135.953.341l.043.032.022.012q.166.125.294.288l.013.013c.05.062.103.14.156.225.583.867.943 2.467.583 5.306-.899 7.08-1.597 21.65-1.597 21.65s-.134.698 1.309-2.37c.05-.106.116-.2.172-.297q.157-.11.275-.26c.893-1.074 3.29-1.706 4.953-1.69.7.084 1.29.262 1.64.484.657 1.012.27 4.737.27 4.737-1.384.131-4.023.883-4.956 1.02-.94.141-2.357 6.28-4.33 5.65-1.975-.625-6.376-3.418-6.376-3.8 0-.335.344-4.413.438-5.462l.016-.21.003-.04c.063-.827.01-1.19-.37-.364-.325.71-1.743 5.266-3.324 10.224-.166.432-3.152 9.57-3.547 10.684-.47 1.29-.86 2.279-1.13 2.792-.413.564-.97.92-1.75.683-1.94-.595-4.395-3.303-4.416-3.976-.048-3.788.181-24.176-.73-22.476-.933 1.74-8.189 13.83-8.189 13.83-.122.019-.21.016-.32.025-.513-.056-1.308-.225-1.527-.72-.012-.031-.031-.06-.04-.088l-.041-.125c-.097-.331-.138-.692-.226-.989-.322-1.105-.845-2.692-1.39-4.307-.832-2.755-1.693-5.572-1.837-5.882-.276-.608-.68-.35-1.042 0-1.619 1.39-5.06 7.519-8.168 7.857"/></svg>