<svg width="36" height="36" viewBox="0 0 46 46"><circle cx="23" cy="23" r="23" fill="#010101"/><path fill="#010101" d="M46 23c0 12.426-10.297 22.5-23 22.5S0 35.426 0 23 10.298.5 23 .5 46 10.574 46 23"/><path fill="#01ffff" d="M19.032 10.378a1.71 1.71 0 0 0-1.674 1.306l-.403 1.727 7.44.809-.02.011c1.427.13 2.544 1.303 2.544 2.732 0 1.516-1.256 2.744-2.805 2.744s-2.805-1.228-2.805-2.744c0-.517.147-1.001.401-1.415l-5.136-.502-2.056 8.809 9.316 1.34-.025.01c1.74.128 3.11 1.549 3.11 3.283 0 1.818-1.507 3.293-3.366 3.293s-3.366-1.475-3.366-3.293c0-.848.328-1.621.866-2.205l-.024.01-6.89-.81-1.74 7.455c-.321 1.374.747 2.684 2.187 2.684h3.918q.168 0 .33-.023.112.023.231.023h6.768q.118 0 .229-.023.285.023.576.023c3.873 0 7.013-3.071 7.013-6.86 0-3.545-2.75-6.462-6.276-6.822l.001-.04c3.171-.092 5.714-2.635 5.714-5.76 0-3.182-2.638-5.762-5.89-5.762q-.21 0-.418.014a1 1 0 0 0-.18-.014z"/></svg>