<svg width="36" height="36" viewBox="0 0 52 52" xmlns="http://www.w3.org/2000/svg"><circle cx="26" cy="26" r="26" fill="#a238ff"/><path fill="#0f0d13" fill-rule="evenodd" d="M37.516 16.187c.315-1.823.776-2.97 1.287-2.972h.001c.954.004 1.727 3.98 1.727 8.889s-.774 8.888-1.729 8.888c-.391 0-.752-.675-1.043-1.808-.46 4.145-1.413 6.994-2.516 6.994-.854 0-1.62-1.711-2.135-4.41-.351 5.133-1.236 8.775-2.27 8.775-.648 0-1.24-1.443-1.677-3.793-.526 4.85-1.741 8.25-3.16 8.25s-2.637-3.398-3.161-8.25c-.435 2.35-1.026 3.793-1.678 3.793-1.033 0-1.916-3.642-2.27-8.776-.514 2.7-1.278 4.411-2.134 4.411-1.103 0-2.057-2.848-2.516-6.994-.29 1.136-.652 1.808-1.044 1.808-.954 0-1.728-3.98-1.728-8.888 0-4.91.774-8.889 1.728-8.889.513 0 .971 1.15 1.289 2.972.509-3.144 1.336-5.187 2.271-5.187 1.11 0 2.072 2.89 2.527 7.086.446-3.054 1.121-5.001 1.878-5.001 1.06 0 1.962 3.83 2.296 9.171.628-2.739 1.537-4.457 2.544-4.457 1.006 0 1.915 1.72 2.542 4.457.335-5.342 1.235-9.171 2.296-9.171.755 0 1.43 1.947 1.878 5.001C33.173 13.89 34.135 11 35.245 11c.932 0 1.762 2.044 2.27 5.187M9 21.23c0-2.195.439-3.974.98-3.974.542 0 .98 1.779.98 3.974 0 2.194-.438 3.973-.98 3.973-.541 0-.98-1.78-.98-3.973m32.04 0c0-2.195.438-3.974.98-3.974.541 0 .98 1.779.98 3.974 0 2.194-.439 3.973-.98 3.973-.542 0-.98-1.78-.98-3.973" clip-rule="evenodd"/></svg>