<svg width="36" height="36" viewBox="0 0 45 45" xmlns="http://www.w3.org/2000/svg"><defs><linearGradient id="linear-gradient-itunes-circle-icon-itunes-circle-icon" x1="427.16" x2="427.16" y1="46.08" y2="1.08" gradientUnits="userSpaceOnUse"><stop offset="0" stop-color="#cb44f5"/><stop offset="1" stop-color="#eb4cbd"/></linearGradient><style>.itunes-icon-star-circle-2{fill:#fff;opacity:.86}</style></defs><title>itunes_circle NEW</title><path d="M449.66 23.58a22.5 22.5 0 1 0-6.59 15.91 22.5 22.5 0 0 0 6.59-15.91" style="fill:url(#linear-gradient-itunes-circle-icon-itunes-circle-icon)" transform="translate(-404.66 -1.08)"/><path d="m21.65 6.92-8.91 28.14a.63.63 0 0 0 1 .71l8.53-6.16 8.53 6.16a.63.63 0 0 0 1-.71L22.81 6.92a.61.61 0 0 0-1.16 0" class="itunes-icon-star-circle-2"/><path d="M22.23 29.6 37.5 18.44a.68.68 0 0 0-.4-1.23H7.34a.68.68 0 0 0-.4 1.23Z" class="itunes-icon-star-circle-2"/></svg>