<svg width="36" height="36" viewBox="0 0 81 81" xmlns="http://www.w3.org/2000/svg"><circle cx="40.5" cy="40.5" r="40.5" fill="#0d6efd"/><path fill="#fcfcfc" d="M62.239 23.27c-.548 0-1.096 0-1.643.077h-.078l-.079-.076C55.824 17.495 48.55 14 41.04 14s-14.863 3.496-19.4 9.347l-.078.076h-.079c-.547-.076-1.095-.076-1.642-.076h-3.442v5.927l-.079.076C13.112 30.793 11 33.985 11 37.48s2.112 6.688 5.32 8.131h.156v.152c.078 13.07 11.108 23.709 24.563 23.709s24.485-10.639 24.563-23.709v-.152l.078-.076c3.208-1.52 5.32-4.711 5.32-8.13 0-3.496-2.112-6.687-5.32-8.131l-.078-.076V23.27zm-34.186 1.976c3.442-3.343 8.136-5.243 12.986-5.243s9.544 1.9 12.986 5.243l.156.152-.234.152a31 31 0 0 0-2.66 1.672l-.078.076-.079-.076c-2.268-1.14-5.867-2.432-10.013-2.432s-7.744 1.292-10.013 2.432l-.078.076-.078-.076c-.86-.608-1.8-1.216-2.66-1.672l-.47-.152zm30.822 20.29c0 9.574-8.058 17.4-17.914 17.4s-17.836-7.826-17.836-17.4V30.49l.235.076c3.129.76 6.102 4.103 6.806 4.939.782-.836 4.458-4.104 10.873-4.104s10.091 3.344 10.874 4.104c.704-.836 3.598-4.18 6.805-4.94l.235-.075v15.045z"/></svg>