<svg width="36" height="36" viewBox="0 0 45 45"><title>sound cloud circle icon</title><path d="M144.24 22.5a22.5 22.5 0 1 0-6.59 15.91 22.5 22.5 0 0 0 6.59-15.91" style="fill:#f70" transform="translate(-99.24)"/><path d="M2.32 21.72a.17.17 0 0 0-.16.16l-.3 2.26.3 2.22a.17.17 0 0 0 .16.16.17.17 0 0 0 .16-.16l.35-2.22-.35-2.26a.17.17 0 0 0-.16-.16m1.67-1.23a.17.17 0 0 0-.34 0l-.4 3.65.4 3.57a.17.17 0 0 0 .34 0l.45-3.57zm6.3-3.37a.31.31 0 0 0-.31.3l-.32 6.72.32 4.34a.31.31 0 0 0 .62 0l.36-4.34-.36-6.72a.32.32 0 0 0-.31-.3m-3.26 2.33a.24.24 0 0 0-.24.23l-.36 4.45.36 4.31a.24.24 0 0 0 .48 0l.41-4.31-.41-4.45a.25.25 0 0 0-.24-.23m6.57 9.33a.38.38 0 0 0 .38-.37l.31-4.27-.31-8.94a.38.38 0 0 0-.75 0l-.28 8.94.28 4.27a.38.38 0 0 0 .37.37m6.78.02a.52.52 0 0 0 .52-.51l.22-4.15-.22-10.33a.52.52 0 0 0-1 0l-.19 10.32.19 4.15a.52.52 0 0 0 .48.52m-3.42-.01a.45.45 0 0 0 .45-.44l.26-4.2-.27-9a.45.45 0 0 0-.89 0l-.24 9 .24 4.2a.45.45 0 0 0 .45.44m-8.31-.04a.28.28 0 0 0 .27-.27l.38-4.34L8.92 20a.275.275 0 0 0-.55 0l-.34 4.13.34 4.34a.28.28 0 0 0 .28.28m-3.23-.24a.21.21 0 0 0 .2-.2l.43-4.17-.43-4.33a.21.21 0 0 0-.2-.2.21.21 0 0 0-.2.2l-.38 4.33.38 4.17a.21.21 0 0 0 .2.2M18.67 15a.48.48 0 0 0-.48.48l-.22 8.68.22 4.18a.5.5 0 0 0 1 0l.24-4.18-.24-8.68a.48.48 0 0 0-.48-.48Zm-6.73 13.79a.35.35 0 0 0 .34-.34l.34-4.31-.34-8.25a.345.345 0 0 0-.69 0l-.3 8.25.3 4.31a.35.35 0 0 0 .35.34m3.75-.4.29-4.24-.29-9.24a.41.41 0 0 0-.82 0l-.26 9.24.26 4.24a.41.41 0 0 0 .82 0m21.82-9.58a5 5 0 0 0-1.93.39 8.82 8.82 0 0 0-8.79-8 8.9 8.9 0 0 0-3.2.6c-.38.15-.48.3-.48.59v15.83a.61.61 0 0 0 .54.59h13.86a5 5 0 0 0 0-10m-15.42-6.48a.56.56 0 0 0-.55.55l-.23 11.26.23 4.09a.55.55 0 0 0 1.1 0l.25-4.09-.25-11.26a.56.56 0 0 0-.55-.55" style="fill:#fff"/></svg>