<svg width="36" height="36" viewBox="0 0 45 45" xmlns="http://www.w3.org/2000/svg"><path d="M45.71 23.22a22.5 22.5 0 1 0-6.59 15.91 22.5 22.5 0 0 0 6.59-15.91" style="fill:#1dd069" transform="translate(-.71 -.73)"/><path d="M38.46 16.7a25 25 0 0 0-2.34-1.21q-1.18-.53-2.44-1A38 38 0 0 0 27.5 13a47 47 0 0 0-6.33-.59h-2.6q-1.3 0-2.6.16c-.83.08-1.64.17-2.43.29s-1.61.27-2.41.46l-1 .24c-.32.09-.66.18-1 .28a2.44 2.44 0 0 0-1.13.9 2.53 2.53 0 0 0 1.37 3.86 2.5 2.5 0 0 0 .72.1 2.8 2.8 0 0 0 .71-.1l.23-.06c.56-.15 1.11-.3 1.67-.42.86-.19 1.73-.33 2.6-.43s1.77-.18 2.65-.22 1.55-.06 2.32-.05 1.54 0 2.32.08 1.49.11 2.23.2 1.46.19 2.19.32c1.06.19 2.1.41 3.12.69a28 28 0 0 1 3 1q.75.3 1.46.65c.47.23.94.48 1.42.75a2.6 2.6 0 0 0 1.27.34 2.51 2.51 0 0 0 2.19-1.27 2.6 2.6 0 0 0 .33-1.26v-.19a3 3 0 0 0-.05-.36 2.45 2.45 0 0 0-.45-1 2.7 2.7 0 0 0-.8-.69Zm-8.59 4.85a33.5 33.5 0 0 0-5.77-1.3 34.4 34.4 0 0 0-5.91-.25c-.94 0-1.86.11-2.77.22s-1.82.27-2.74.47l-1.11.27-1.08.31a2.08 2.08 0 0 0-1.06.73A2.2 2.2 0 0 0 9 23.23a2.15 2.15 0 0 0 .35 1.25 2.2 2.2 0 0 0 1 .83 2.2 2.2 0 0 0 .78.16 2.5 2.5 0 0 0 .75-.11 25 25 0 0 1 3.61-.78 29 29 0 0 1 3.87-.27c1 0 2 0 2.91.14s1.87.22 2.81.4a28 28 0 0 1 3.54.9A23 23 0 0 1 32 27.12c.35.18.69.37 1 .57l.38.21a2.25 2.25 0 0 0 1.64.24 2.15 2.15 0 0 0 1.33-1 2.23 2.23 0 0 0 .25-1.67 2.14 2.14 0 0 0-1-1.33l-.22-.14a26 26 0 0 0-2.69-1.39 28 28 0 0 0-2.82-1.07Zm-5.74 5.87a31 31 0 0 0-4.36-.34h-.91c-.69 0-1.39.07-2 .12-.88.07-1.76.19-2.64.33s-1.75.31-2.61.51l-.22.06-.25.08a1.8 1.8 0 0 0-.92.82 1.88 1.88 0 0 0-.22 1.27 1.79 1.79 0 0 0 1.78 1.47h.4l.35-.07q1.55-.34 3.12-.56c1-.14 2.09-.23 3.15-.28h2.44q1.22 0 2.42.25a21.3 21.3 0 0 1 3.8.93A19.6 19.6 0 0 1 31 33.66h.06l.36.2a1.84 1.84 0 0 0 1.85-3.14 4 4 0 0 0-.36-.24 23 23 0 0 0-2.16-1.14 23 23 0 0 0-2.27-.9 25.4 25.4 0 0 0-4.26-1Z" style="fill:#fff" transform="translate(-.71 -.73)"/></svg>