<svg width="36" height="36" viewBox="0 0 45 45"><defs><style>.tidal-icon-circle-2{fill:#fff}</style></defs><title>tidal_circle icon</title><path d="M45 22.5a22.5 22.5 0 1 0-6.59 15.91A22.5 22.5 0 0 0 45 22.5" style="fill:#231f20"/><path d="M10.94 13.45H11c.55.63 1.16 1.18 1.74 1.78l4 4v.07L11 25l-5.78-5.76a2.4 2.4 0 0 1 .43-.46c1.76-1.78 3.54-3.54 5.29-5.33" class="tidal-icon-circle-2"/><path d="M22.47 13.45h.07a1.4 1.4 0 0 0 .18.22c1.85 1.83 3.67 3.69 5.54 5.52a.9.9 0 0 1-.22.26L22.5 25c-1.93-1.9-3.83-3.84-5.77-5.74 1.88-1.97 3.85-3.86 5.74-5.81" class="tidal-icon-circle-2"/><path d="M34 13.45h.07c.36.43.78.8 1.16 1.2L39.57 19c.07.08.19.15.21.27C37.84 21.14 36 23.1 34 25l-5.5-5.5c-.09-.1-.21-.17-.25-.3 1-.95 1.92-1.92 2.89-2.88s1.93-1.89 2.86-2.87M16.81 30.66 22.48 25h.08q2.84 2.86 5.7 5.69c-.06.14-.2.22-.3.34l-4.13 4.12c-.45.43-.88.91-1.33 1.31-.65-.59-1.25-1.25-1.89-1.86a1399 1399 0 0 0-3.86-3.85l.05-.13Z" class="tidal-icon-circle-2"/></svg>