<svg width="36" height="36" viewBox="0 0 45 45" xmlns="http://www.w3.org/2000/svg"><defs><style>.youtube-icon-circle-1{fill:red}</style></defs><circle cx="22.5" cy="22.5" r="22.5" class="youtube-icon-circle-1"/><path id="lozenge-path-YouTubeCircleIcon-youtube-circle-icon" d="M37.12 16a3.71 3.71 0 0 0-2.61-2.61C32.2 12.73 23 12.73 23 12.73s-9.24 0-11.55.62A3.71 3.71 0 0 0 8.79 16a38.6 38.6 0 0 0-.62 7.11 38.6 38.6 0 0 0 .62 7.11 3.71 3.71 0 0 0 2.61 2.61c2.31.62 11.55.62 11.55.62s9.24 0 11.55-.62a3.71 3.71 0 0 0 2.61-2.61 38.6 38.6 0 0 0 .62-7.11 38.6 38.6 0 0 0-.61-7.11" style="fill:#fff" transform="translate(0 -.58)"/><path id="play-polygon-YouTubeCircleIcon-youtube-circle-icon" d="m20 26.93 7.68-4.43L20 18.07z" class="youtube-icon-circle-1"/></svg>