<svg width="36" height="36" viewBox="0 0 40 40" xmlns="http://www.w3.org/2000/svg"><path fill="none" d="M0 0h40v40H0z"/><path fill="none" d="M0 0h40v40H0z"/><path fill="red" d="M20 40c11.046 0 20-8.954 20-20S31.046 0 20 0 0 8.954 0 20s8.954 20 20 20"/><path fill="none" d="M9.545 9.545h20.91v20.91H9.544z"/><path fill="#fff" d="M20 10.464c5.259 0 9.536 4.277 9.536 9.536S25.26 29.536 20 29.536 10.464 25.259 10.464 20c0-5.26 4.277-9.536 9.536-9.536m0-.919c-5.775 0-10.455 4.68-10.455 10.455S14.225 30.455 20 30.455 30.455 25.775 30.455 20 25.775 9.545 20 9.545"/><path fill="#fff" d="m16.364 25.228 8.863-5.455-8.863-5z"/></svg>